<svg xmlns="http://www.w3.org/2000/svg" xmlns:xlink="http://www.w3.org/1999/xlink" width="1471pt" height="701pt" viewBox="0 0 1471.19 701.4"><g id="graph0" class="graph" transform="scale(1 1) rotate(0) translate(4 697.4)"><title>UmlClassDiagram</title><polygon fill="#fff" stroke="transparent" points="-4 4 -4 -697.4 1467.188 -697.4 1467.188 4 -4 4"/><g id="node1" class="node"><title>8</title><polygon fill="#f2f2f2" stroke="#000" points="0 -.5 0 -259.7 831.209 -259.7 831.209 -.5 0 -.5"/><text x="415.604" y="-243.1" fill="#000" font-family="Times,serif" font-size="14" text-anchor="middle">BridgeForwarder</text><text x="415.604" y="-226.3" fill="#000" font-family="Times,serif" font-size="14" text-anchor="middle">contracts/emissions/BridgeForwarder.sol</text><polyline fill="none" stroke="#000" points="0 -218.1 831.209 -218.1"/><text x="8" y="-201.5" fill="#000" font-family="Times,serif" font-size="14" text-anchor="start">Public:</text><text x="8" y="-184.7" fill="#000" font-family="Times,serif" font-size="14" text-anchor="start">REWARDS_TOKEN: IERC20</text><text x="8" y="-167.9" fill="#000" font-family="Times,serif" font-size="14" text-anchor="start">ROOT_CHAIN_MANAGER: IRootChainManager</text><text x="8" y="-151.1" fill="#000" font-family="Times,serif" font-size="14" text-anchor="start">BRIDGE_TOKEN_LOCKER: address</text><text x="8" y="-134.3" fill="#000" font-family="Times,serif" font-size="14" text-anchor="start">BRIDGE_RECIPIENT: address</text><polyline fill="none" stroke="#000" points="0 -126.1 831.209 -126.1"/><text x="8" y="-109.5" fill="#000" font-family="Times,serif" font-size="14" text-anchor="start">External:</text><text x="8" y="-92.7" fill="#000" font-family="Times,serif" font-size="14" text-anchor="start">initialize(_emissionsController: address)</text><text x="8" y="-75.9" fill="#000" font-family="Times,serif" font-size="14" text-anchor="start">notifyRewardAmount(_rewards: uint256)</text><text x="8" y="-59.1" fill="#000" font-family="Times,serif" font-size="14" text-anchor="start">getRewardToken(): IERC20</text><text x="8" y="-42.3" fill="#000" font-family="Times,serif" font-size="14" text-anchor="start">Public:</text><text x="8" y="-25.5" fill="#000" font-family="Times,serif" font-size="14" text-anchor="start">&lt;&lt;event&gt;&gt; Forwarded(amount: uint256)</text><text x="8" y="-8.7" fill="#000" font-family="Times,serif" font-size="14" text-anchor="start">constructor(_nexus: address, _rewardsToken: address, _bridgeTokenLocker: address, _rootChainManager: address, _bridgeRecipient: address)</text></g><g id="node4" class="node"><title>43</title><polygon fill="#f2f2f2" stroke="#000" points="660.851 -576.1 660.851 -692.9 984.358 -692.9 984.358 -576.1 660.851 -576.1"/><text x="822.604" y="-676.3" fill="#000" font-family="Times,serif" font-size="14" text-anchor="middle">&lt;&lt;Interface&gt;&gt;</text><text x="822.604" y="-659.5" fill="#000" font-family="Times,serif" font-size="14" text-anchor="middle">IRewardsDistributionRecipient</text><text x="822.604" y="-642.7" fill="#000" font-family="Times,serif" font-size="14" text-anchor="middle">contracts/interfaces/IRewardsDistributionRecipient.sol</text><polyline fill="none" stroke="#000" points="660.851 -634.5 984.358 -634.5"/><text x="668.851" y="-617.9" fill="#000" font-family="Times,serif" font-size="14" text-anchor="start">External:</text><text x="668.851" y="-601.1" fill="#000" font-family="Times,serif" font-size="14" text-anchor="start">notifyRewardAmount(reward: uint256)</text><text x="668.851" y="-584.3" fill="#000" font-family="Times,serif" font-size="14" text-anchor="start">getRewardToken(): IERC20</text></g><g id="edge1" class="edge"><title>8-&gt;43</title><path fill="none" stroke="#000" stroke-dasharray="5 2" d="M227.3308,-259.9133C218.5395,-271.3072 210.8143,-283.4085 204.6044,-296.2 157.3606,-393.5163 134.155,-457.5067 204.6044,-539.6 232.4399,-572.0362 459.9585,-600.4825 630.9126,-617.5703"/><polygon fill="none" stroke="#000" points="629.888 -628.02 660.77 -620.498 631.938 -607.12 629.888 -628.02"/></g><g id="node5" class="node"><title>45</title><polygon fill="#f2f2f2" stroke="#000" points="213.998 -367.9 213.998 -467.9 617.211 -467.9 617.211 -367.9 213.998 -367.9"/><text x="415.604" y="-451.3" fill="#000" font-family="Times,serif" font-size="14" text-anchor="middle">&lt;&lt;Interface&gt;&gt;</text><text x="415.604" y="-434.5" fill="#000" font-family="Times,serif" font-size="14" text-anchor="middle">IRootChainManager</text><text x="415.604" y="-417.7" fill="#000" font-family="Times,serif" font-size="14" text-anchor="middle">contracts/interfaces/IRootChainManager.sol</text><polyline fill="none" stroke="#000" points="213.998 -409.5 617.211 -409.5"/><text x="221.998" y="-392.9" fill="#000" font-family="Times,serif" font-size="14" text-anchor="start">External:</text><text x="221.998" y="-376.1" fill="#000" font-family="Times,serif" font-size="14" text-anchor="start">depositFor(userAddress: address, rootToken: address, data: bytes)</text></g><g id="edge3" class="edge"><title>8-&gt;45</title><path fill="none" stroke="#000" d="M415.6044,-260.1071C415.6044,-294.0707 415.6044,-329.0763 415.6044,-357.4608"/><polygon fill="#000" stroke="#000" points="412.104 -357.604 415.604 -367.604 419.104 -357.604 412.104 -357.604"/></g><g id="node6" class="node"><title>76</title><polygon fill="#f2f2f2" stroke="#000" points="634.802 -321.9 634.802 -513.9 1010.407 -513.9 1010.407 -321.9 634.802 -321.9"/><text x="822.604" y="-497.3" fill="#000" font-family="Times,serif" font-size="14" text-anchor="middle">&lt;&lt;Abstract&gt;&gt;</text><text x="822.604" y="-480.5" fill="#000" font-family="Times,serif" font-size="14" text-anchor="middle">InitializableRewardsDistributionRecipient</text><text x="822.604" y="-463.7" fill="#000" font-family="Times,serif" font-size="14" text-anchor="middle">contracts/rewards/InitializableRewardsDistributionRecipient.sol</text><polyline fill="none" stroke="#000" points="634.802 -455.5 1010.407 -455.5"/><text x="642.802" y="-438.9" fill="#000" font-family="Times,serif" font-size="14" text-anchor="start">Public:</text><text x="642.802" y="-422.1" fill="#000" font-family="Times,serif" font-size="14" text-anchor="start">rewardsDistributor: address</text><polyline fill="none" stroke="#000" points="634.802 -413.9 1010.407 -413.9"/><text x="642.802" y="-397.3" fill="#000" font-family="Times,serif" font-size="14" text-anchor="start">External:</text><text x="642.802" y="-380.5" fill="#000" font-family="Times,serif" font-size="14" text-anchor="start">setRewardsDistribution(_rewardsDistributor: address)</text><text x="642.802" y="-363.7" fill="#000" font-family="Times,serif" font-size="14" text-anchor="start">Public:</text><text x="642.802" y="-346.9" fill="#000" font-family="Times,serif" font-size="14" text-anchor="start">&lt;&lt;modifier&gt;&gt; onlyRewardsDistributor()</text><text x="642.802" y="-330.1" fill="#000" font-family="Times,serif" font-size="14" text-anchor="start">constructor(_nexus: address)</text></g><g id="edge2" class="edge"><title>8-&gt;76</title><path fill="none" stroke="#000" d="M599.1605,-259.8972C620.0694,-274.6824 641.2619,-289.6681 661.8435,-304.2219"/><polygon fill="none" stroke="#000" points="656.029 -312.97 686.586 -321.718 668.153 -295.824 656.029 -312.97"/></g><g id="node2" class="node"><title>16</title><polygon fill="#f2f2f2" stroke="#000" points="849.555 -59.3 849.555 -200.9 1277.654 -200.9 1277.654 -59.3 849.555 -59.3"/><text x="1063.604" y="-184.3" fill="#000" font-family="Times,serif" font-size="14" text-anchor="middle">L2BridgeRecipient</text><text x="1063.604" y="-167.5" fill="#000" font-family="Times,serif" font-size="14" text-anchor="middle">contracts/emissions/L2BridgeRecipient.sol</text><polyline fill="none" stroke="#000" points="849.555 -159.3 1277.654 -159.3"/><text x="857.555" y="-142.7" fill="#000" font-family="Times,serif" font-size="14" text-anchor="start">Public:</text><text x="857.555" y="-125.9" fill="#000" font-family="Times,serif" font-size="14" text-anchor="start">REWARDS_TOKEN: IERC20</text><text x="857.555" y="-109.1" fill="#000" font-family="Times,serif" font-size="14" text-anchor="start">L2_EMISSIONS_CONTROLLER: address</text><polyline fill="none" stroke="#000" points="849.555 -100.9 1277.654 -100.9"/><text x="857.555" y="-84.3" fill="#000" font-family="Times,serif" font-size="14" text-anchor="start">Public:</text><text x="857.555" y="-67.5" fill="#000" font-family="Times,serif" font-size="14" text-anchor="start">constructor(_rewardsToken: address, _l2EmissionsController: address)</text></g><g id="node3" class="node"><title>17</title><polygon fill="#f2f2f2" stroke="#000" points="1028.021 -296.7 1028.021 -539.1 1463.188 -539.1 1463.188 -296.7 1028.021 -296.7"/><text x="1245.604" y="-522.5" fill="#000" font-family="Times,serif" font-size="14" text-anchor="middle">L2EmissionsController</text><text x="1245.604" y="-505.7" fill="#000" font-family="Times,serif" font-size="14" text-anchor="middle">contracts/emissions/L2EmissionsController.sol</text><polyline fill="none" stroke="#000" points="1028.021 -497.5 1463.188 -497.5"/><text x="1036.021" y="-480.9" fill="#000" font-family="Times,serif" font-size="14" text-anchor="start">Public:</text><text x="1036.021" y="-464.1" fill="#000" font-family="Times,serif" font-size="14" text-anchor="start">REWARD_TOKEN: IERC20</text><text x="1036.021" y="-447.3" fill="#000" font-family="Times,serif" font-size="14" text-anchor="start">recipientMap: mapping(address=&gt;address)</text><polyline fill="none" stroke="#000" points="1028.021 -439.1 1463.188 -439.1"/><text x="1036.021" y="-422.5" fill="#000" font-family="Times,serif" font-size="14" text-anchor="start">External:</text><text x="1036.021" y="-405.7" fill="#000" font-family="Times,serif" font-size="14" text-anchor="start">initialize()</text><text x="1036.021" y="-388.9" fill="#000" font-family="Times,serif" font-size="14" text-anchor="start">addRecipient(_bridgeRecipient: address, _endRecipient: address)</text><text x="1036.021" y="-372.1" fill="#000" font-family="Times,serif" font-size="14" text-anchor="start">distributeRewards(_endRecipients: address[])</text><text x="1036.021" y="-355.3" fill="#000" font-family="Times,serif" font-size="14" text-anchor="start">Public:</text><text x="1036.021" y="-338.5" fill="#000" font-family="Times,serif" font-size="14" text-anchor="start">&lt;&lt;event&gt;&gt; AddedDial(bridgeRecipient: address, endRecipient: address)</text><text x="1036.021" y="-321.7" fill="#000" font-family="Times,serif" font-size="14" text-anchor="start">&lt;&lt;event&gt;&gt; DistributedReward(endRecipient: address, amount: uint256)</text><text x="1036.021" y="-304.9" fill="#000" font-family="Times,serif" font-size="14" text-anchor="start">constructor(_nexus: address, _childRewardToken: address)</text></g><g id="edge4" class="edge"><title>17-&gt;43</title><path fill="none" stroke="#000" stroke-dasharray="5 2" d="M1027.9898,-535.311C1025.1797,-536.753 1022.3835,-538.1832 1019.6044,-539.6 998.9626,-550.1229 976.9663,-561.0221 955.4344,-571.5202"/><polygon fill="#000" stroke="#000" points="953.702 -568.471 946.24 -575.992 956.764 -574.766 953.702 -568.471"/></g><g id="edge5" class="edge"><title>76-&gt;43</title><path fill="none" stroke="#000" stroke-dasharray="5 2" d="M822.6044,-514.1653C822.6044,-524.6729 822.6044,-535.3336 822.6044,-545.745"/><polygon fill="none" stroke="#000" points="812.105 -545.829 822.604 -575.829 833.105 -545.829 812.105 -545.829"/></g></g></svg>