<svg xmlns="http://www.w3.org/2000/svg" xmlns:xlink="http://www.w3.org/1999/xlink" width="2708" height="1273pt" viewBox="0 0 2031.17 1272.6"><g id="graph0" class="graph" transform="scale(1 1) rotate(0) translate(4 1268.6)"><title>UmlClassDiagram</title><polygon fill="#fff" stroke="transparent" points="-4 4 -4 -1268.6 2027.169 -1268.6 2027.169 4 -4 4"/><g id="node1" class="node"><title>7</title><polygon fill="#f2f2f2" stroke="#000" points="0 -.5 0 -259.7 394.679 -259.7 394.679 -.5 0 -.5"/><text x="197.339" y="-243.1" fill="#000" font-family="Times,serif" font-size="14" text-anchor="middle">BasicRewardsForwarder</text><text x="197.339" y="-226.3" fill="#000" font-family="Times,serif" font-size="14" text-anchor="middle">contracts/emissions/BasicRewardsForwarder.sol</text><polyline fill="none" stroke="#000" points="0 -218.1 394.679 -218.1"/><text x="8" y="-201.5" fill="#000" font-family="Times,serif" font-size="14" text-anchor="start">Public:</text><text x="8" y="-184.7" fill="#000" font-family="Times,serif" font-size="14" text-anchor="start">REWARDS_TOKEN: IERC20</text><text x="8" y="-167.9" fill="#000" font-family="Times,serif" font-size="14" text-anchor="start">endRecipient: address</text><polyline fill="none" stroke="#000" points="0 -159.7 394.679 -159.7"/><text x="8" y="-143.1" fill="#000" font-family="Times,serif" font-size="14" text-anchor="start">External:</text><text x="8" y="-126.3" fill="#000" font-family="Times,serif" font-size="14" text-anchor="start">initialize(_emissionsController: address, _endRecipient: address)</text><text x="8" y="-109.5" fill="#000" font-family="Times,serif" font-size="14" text-anchor="start">notifyRewardAmount(_rewards: uint256)</text><text x="8" y="-92.7" fill="#000" font-family="Times,serif" font-size="14" text-anchor="start">setEndRecipient(_endRecipient: address)</text><text x="8" y="-75.9" fill="#000" font-family="Times,serif" font-size="14" text-anchor="start">getRewardToken(): IERC20</text><text x="8" y="-59.1" fill="#000" font-family="Times,serif" font-size="14" text-anchor="start">Public:</text><text x="8" y="-42.3" fill="#000" font-family="Times,serif" font-size="14" text-anchor="start">&lt;&lt;event&gt;&gt; RewardsReceived(amount: uint256)</text><text x="8" y="-25.5" fill="#000" font-family="Times,serif" font-size="14" text-anchor="start">&lt;&lt;event&gt;&gt; RecipientChanged(newRecipient: address)</text><text x="8" y="-8.7" fill="#000" font-family="Times,serif" font-size="14" text-anchor="start">constructor(_nexus: address, _rewardsToken: address)</text></g><g id="node8" class="node"><title>43</title><polygon fill="#f2f2f2" stroke="#000" points="35.586 -1122.1 35.586 -1238.9 359.093 -1238.9 359.093 -1122.1 35.586 -1122.1"/><text x="197.339" y="-1222.3" fill="#000" font-family="Times,serif" font-size="14" text-anchor="middle">&lt;&lt;Interface&gt;&gt;</text><text x="197.339" y="-1205.5" fill="#000" font-family="Times,serif" font-size="14" text-anchor="middle">IRewardsDistributionRecipient</text><text x="197.339" y="-1188.7" fill="#000" font-family="Times,serif" font-size="14" text-anchor="middle">contracts/interfaces/IRewardsDistributionRecipient.sol</text><polyline fill="none" stroke="#000" points="35.586 -1180.5 359.093 -1180.5"/><text x="43.586" y="-1163.9" fill="#000" font-family="Times,serif" font-size="14" text-anchor="start">External:</text><text x="43.586" y="-1147.1" fill="#000" font-family="Times,serif" font-size="14" text-anchor="start">notifyRewardAmount(reward: uint256)</text><text x="43.586" y="-1130.3" fill="#000" font-family="Times,serif" font-size="14" text-anchor="start">getRewardToken(): IERC20</text></g><g id="edge1" class="edge"><title>7-&gt;43</title><path fill="none" stroke="#000" stroke-dasharray="5 2" d="M120.2252,-260.0757C115.4556,-272.0043 111.3663,-284.1422 108.3395,-296.2 25.6448,-625.6236 1.8618,-737.8774 108.3395,-1060.4 112.4691,-1072.9085 118.4599,-1085.1782 125.4114,-1096.8121"/><polygon fill="none" stroke="#000" points="116.857 -1102.906 142.375 -1121.855 134.244 -1091.128 116.857 -1102.906"/></g><g id="node10" class="node"><title>76</title><polygon fill="#f2f2f2" stroke="#000" points="117.537 -582.3 117.537 -774.3 493.142 -774.3 493.142 -582.3 117.537 -582.3"/><text x="305.339" y="-757.7" fill="#000" font-family="Times,serif" font-size="14" text-anchor="middle">&lt;&lt;Abstract&gt;&gt;</text><text x="305.339" y="-740.9" fill="#000" font-family="Times,serif" font-size="14" text-anchor="middle">InitializableRewardsDistributionRecipient</text><text x="305.339" y="-724.1" fill="#000" font-family="Times,serif" font-size="14" text-anchor="middle">contracts/rewards/InitializableRewardsDistributionRecipient.sol</text><polyline fill="none" stroke="#000" points="117.537 -715.9 493.142 -715.9"/><text x="125.537" y="-699.3" fill="#000" font-family="Times,serif" font-size="14" text-anchor="start">Public:</text><text x="125.537" y="-682.5" fill="#000" font-family="Times,serif" font-size="14" text-anchor="start">rewardsDistributor: address</text><polyline fill="none" stroke="#000" points="117.537 -674.3 493.142 -674.3"/><text x="125.537" y="-657.7" fill="#000" font-family="Times,serif" font-size="14" text-anchor="start">External:</text><text x="125.537" y="-640.9" fill="#000" font-family="Times,serif" font-size="14" text-anchor="start">setRewardsDistribution(_rewardsDistributor: address)</text><text x="125.537" y="-624.1" fill="#000" font-family="Times,serif" font-size="14" text-anchor="start">Public:</text><text x="125.537" y="-607.3" fill="#000" font-family="Times,serif" font-size="14" text-anchor="start">&lt;&lt;modifier&gt;&gt; onlyRewardsDistributor()</text><text x="125.537" y="-590.5" fill="#000" font-family="Times,serif" font-size="14" text-anchor="start">constructor(_nexus: address)</text></g><g id="edge2" class="edge"><title>7-&gt;76</title><path fill="none" stroke="#000" d="M222.934,-260.0157C240.343,-348.3828 263.2585,-464.7 280.5043,-552.2384"/><polygon fill="none" stroke="#000" points="270.249 -554.504 286.35 -581.909 290.853 -550.445 270.249 -554.504"/></g><g id="node2" class="node"><title>15</title><polygon fill="#f2f2f2" stroke="#000" points="794.757 -296.7 794.757 -1059.9 1351.922 -1059.9 1351.922 -296.7 794.757 -296.7"/><text x="1073.34" y="-1043.3" fill="#000" font-family="Times,serif" font-size="14" text-anchor="middle">EmissionsController</text><text x="1073.34" y="-1026.5" fill="#000" font-family="Times,serif" font-size="14" text-anchor="middle">contracts/emissions/EmissionsController.sol</text><polyline fill="none" stroke="#000" points="794.757 -1018.3 1351.922 -1018.3"/><text x="802.757" y="-1001.7" fill="#000" font-family="Times,serif" font-size="14" text-anchor="start">Public:</text><text x="802.757" y="-984.9" fill="#000" font-family="Times,serif" font-size="14" text-anchor="start">DISTRIBUTION_PERIOD: uint32</text><text x="802.757" y="-968.1" fill="#000" font-family="Times,serif" font-size="14" text-anchor="start">SCALE: uint256</text><text x="802.757" y="-951.3" fill="#000" font-family="Times,serif" font-size="14" text-anchor="start">A: int256</text><text x="802.757" y="-934.5" fill="#000" font-family="Times,serif" font-size="14" text-anchor="start">B: int256</text><text x="802.757" y="-917.7" fill="#000" font-family="Times,serif" font-size="14" text-anchor="start">C: int256</text><text x="802.757" y="-900.9" fill="#000" font-family="Times,serif" font-size="14" text-anchor="start">D: int256</text><text x="802.757" y="-884.1" fill="#000" font-family="Times,serif" font-size="14" text-anchor="start">EPOCHS: uint128</text><text x="802.757" y="-867.3" fill="#000" font-family="Times,serif" font-size="14" text-anchor="start">REWARD_TOKEN: IERC20</text><text x="802.757" y="-850.5" fill="#000" font-family="Times,serif" font-size="14" text-anchor="start">epochs: EpochHistory</text><text x="802.757" y="-833.7" fill="#000" font-family="Times,serif" font-size="14" text-anchor="start">stakingContractAddTime: mapping(address=&gt;uint32)</text><text x="802.757" y="-816.9" fill="#000" font-family="Times,serif" font-size="14" text-anchor="start">stakingContracts: IVotes[]</text><text x="802.757" y="-800.1" fill="#000" font-family="Times,serif" font-size="14" text-anchor="start">dials: DialData[]</text><text x="802.757" y="-783.3" fill="#000" font-family="Times,serif" font-size="14" text-anchor="start">voterPreferences: mapping(address=&gt;VoterPreferences)</text><polyline fill="none" stroke="#000" points="794.757 -775.1 1351.922 -775.1"/><text x="802.757" y="-758.5" fill="#000" font-family="Times,serif" font-size="14" text-anchor="start">External:</text><text x="802.757" y="-741.7" fill="#000" font-family="Times,serif" font-size="14" text-anchor="start">initialize(_recipients: address[], _caps: uint8[], _notifies: bool[], _stakingContracts: address[])</text><text x="802.757" y="-724.9" fill="#000" font-family="Times,serif" font-size="14" text-anchor="start">addDial(_recipient: address, _cap: uint8, _notify: bool)</text><text x="802.757" y="-708.1" fill="#000" font-family="Times,serif" font-size="14" text-anchor="start">updateDial(_dialId: uint256, _disabled: bool)</text><text x="802.757" y="-691.3" fill="#000" font-family="Times,serif" font-size="14" text-anchor="start">addStakingContract(_stakingContract: address)</text><text x="802.757" y="-674.5" fill="#000" font-family="Times,serif" font-size="14" text-anchor="start">donate(_dialIds: uint256[], _amounts: uint256[])</text><text x="802.757" y="-657.7" fill="#000" font-family="Times,serif" font-size="14" text-anchor="start">calculateRewards()</text><text x="802.757" y="-640.9" fill="#000" font-family="Times,serif" font-size="14" text-anchor="start">distributeRewards(_dialIds: uint256[])</text><text x="802.757" y="-624.1" fill="#000" font-family="Times,serif" font-size="14" text-anchor="start">setVoterDialWeights(_preferences: Preference[])</text><text x="802.757" y="-607.3" fill="#000" font-family="Times,serif" font-size="14" text-anchor="start">moveVotingPowerHook(from: address, to: address, amount: uint256)</text><text x="802.757" y="-590.5" fill="#000" font-family="Times,serif" font-size="14" text-anchor="start">Public:</text><text x="802.757" y="-573.7" fill="#000" font-family="Times,serif" font-size="14" text-anchor="start">&lt;&lt;event&gt;&gt; AddedDial(dialId: uint256, recipient: address)</text><text x="802.757" y="-556.9" fill="#000" font-family="Times,serif" font-size="14" text-anchor="start">&lt;&lt;event&gt;&gt; UpdatedDial(dialId: uint256, disabled: bool)</text><text x="802.757" y="-540.1" fill="#000" font-family="Times,serif" font-size="14" text-anchor="start">&lt;&lt;event&gt;&gt; AddStakingContract(stakingContract: address)</text><text x="802.757" y="-523.3" fill="#000" font-family="Times,serif" font-size="14" text-anchor="start">&lt;&lt;event&gt;&gt; PeriodRewards(amounts: uint256[])</text><text x="802.757" y="-506.5" fill="#000" font-family="Times,serif" font-size="14" text-anchor="start">&lt;&lt;event&gt;&gt; DonatedRewards(dialId: uint256, amount: uint256)</text><text x="802.757" y="-489.7" fill="#000" font-family="Times,serif" font-size="14" text-anchor="start">&lt;&lt;event&gt;&gt; DistributedReward(dialId: uint256, amount: uint256)</text><text x="802.757" y="-472.9" fill="#000" font-family="Times,serif" font-size="14" text-anchor="start">&lt;&lt;event&gt;&gt; PreferencesChanged(voter: address, preferences: Preference[])</text><text x="802.757" y="-456.1" fill="#000" font-family="Times,serif" font-size="14" text-anchor="start">&lt;&lt;event&gt;&gt; VotesCast(stakingContract: address, from: address, to: address, amount: uint256)</text><text x="802.757" y="-439.3" fill="#000" font-family="Times,serif" font-size="14" text-anchor="start">&lt;&lt;event&gt;&gt; SourcesPoked(voter: address, newVotesCast: uint256)</text><text x="802.757" y="-422.5" fill="#000" font-family="Times,serif" font-size="14" text-anchor="start">constructor(_nexus: address, _rewardToken: address, _config: TopLevelConfig)</text><text x="802.757" y="-405.7" fill="#000" font-family="Times,serif" font-size="14" text-anchor="start">getVotes(account: address): (votingPower: uint256)</text><text x="802.757" y="-388.9" fill="#000" font-family="Times,serif" font-size="14" text-anchor="start">topLineEmission(epoch: uint32): (emissionForEpoch: uint256)</text><text x="802.757" y="-372.1" fill="#000" font-family="Times,serif" font-size="14" text-anchor="start">getDialRecipient(dialId: uint256): (recipient: address)</text><text x="802.757" y="-355.3" fill="#000" font-family="Times,serif" font-size="14" text-anchor="start">getDialVoteHistory(dialId: uint256): (voteHistory: HistoricVotes[])</text><text x="802.757" y="-338.5" fill="#000" font-family="Times,serif" font-size="14" text-anchor="start">getDialVotes(): (dialVotes: uint256[])</text><text x="802.757" y="-321.7" fill="#000" font-family="Times,serif" font-size="14" text-anchor="start">getVoterPreferences(voter: address): (preferences: Preference[16])</text><text x="802.757" y="-304.9" fill="#000" font-family="Times,serif" font-size="14" text-anchor="start">pokeSources(_voter: address)</text></g><g id="node3" class="node"><title>11</title><polygon fill="#f2f2f2" stroke="#000" points="377.105 -1130.5 377.105 -1230.5 641.574 -1230.5 641.574 -1130.5 377.105 -1130.5"/><text x="509.339" y="-1213.9" fill="#000" font-family="Times,serif" font-size="14" text-anchor="middle">&lt;&lt;Struct&gt;&gt;</text><text x="509.339" y="-1197.1" fill="#000" font-family="Times,serif" font-size="14" text-anchor="middle">Preference</text><text x="509.339" y="-1180.3" fill="#000" font-family="Times,serif" font-size="14" text-anchor="middle">contracts/emissions/EmissionsController.sol</text><polyline fill="none" stroke="#000" points="377.105 -1172.1 641.574 -1172.1"/><text x="385.105" y="-1155.5" fill="#000" font-family="Times,serif" font-size="14" text-anchor="start">dialId: uint8</text><text x="385.105" y="-1138.7" fill="#000" font-family="Times,serif" font-size="14" text-anchor="start">weight: uint8</text></g><g id="edge9" class="edge"><title>15-&gt;11</title><path fill="none" stroke="#000" stroke-dasharray="5 2" d="M794.6441,-926.4575C711.5484,-1000.4481 628.07,-1074.7793 573.0744,-1123.7488"/><polygon fill="#000" stroke="#000" points="570.647 -1121.224 565.506 -1130.488 575.302 -1126.451 570.647 -1121.224"/></g><g id="node4" class="node"><title>12</title><polygon fill="#f2f2f2" stroke="#000" points="659.105 -1122.1 659.105 -1238.9 923.574 -1238.9 923.574 -1122.1 659.105 -1122.1"/><text x="791.34" y="-1222.3" fill="#000" font-family="Times,serif" font-size="14" text-anchor="middle">&lt;&lt;Struct&gt;&gt;</text><text x="791.34" y="-1205.5" fill="#000" font-family="Times,serif" font-size="14" text-anchor="middle">VoterPreferences</text><text x="791.34" y="-1188.7" fill="#000" font-family="Times,serif" font-size="14" text-anchor="middle">contracts/emissions/EmissionsController.sol</text><polyline fill="none" stroke="#000" points="659.105 -1180.5 923.574 -1180.5"/><text x="667.105" y="-1163.9" fill="#000" font-family="Times,serif" font-size="14" text-anchor="start">dialWeights: Preference[16]</text><text x="667.105" y="-1147.1" fill="#000" font-family="Times,serif" font-size="14" text-anchor="start">votesCast: uint128</text><text x="667.105" y="-1130.3" fill="#000" font-family="Times,serif" font-size="14" text-anchor="start">lastSourcePoke: uint32</text></g><g id="edge3" class="edge"><title>15-&gt;12</title><path fill="none" stroke="#000" d="M858.8855,-1060.2106C848.0706,-1079.4703 838.0556,-1097.3056 829.2296,-1113.0233"/><polygon fill="#000" stroke="#000" points="826.018 -1111.595 824.173 -1122.028 832.121 -1115.022 826.018 -1111.595"/></g><g id="node5" class="node"><title>10</title><polygon fill="#f2f2f2" stroke="#000" points="941.105 -1096.9 941.105 -1264.1 1205.574 -1264.1 1205.574 -1096.9 941.105 -1096.9"/><text x="1073.34" y="-1247.5" fill="#000" font-family="Times,serif" font-size="14" text-anchor="middle">&lt;&lt;Struct&gt;&gt;</text><text x="1073.34" y="-1230.7" fill="#000" font-family="Times,serif" font-size="14" text-anchor="middle">DialData</text><text x="1073.34" y="-1213.9" fill="#000" font-family="Times,serif" font-size="14" text-anchor="middle">contracts/emissions/EmissionsController.sol</text><polyline fill="none" stroke="#000" points="941.105 -1205.7 1205.574 -1205.7"/><text x="949.105" y="-1189.1" fill="#000" font-family="Times,serif" font-size="14" text-anchor="start">disabled: bool</text><text x="949.105" y="-1172.3" fill="#000" font-family="Times,serif" font-size="14" text-anchor="start">notify: bool</text><text x="949.105" y="-1155.5" fill="#000" font-family="Times,serif" font-size="14" text-anchor="start">cap: uint8</text><text x="949.105" y="-1138.7" fill="#000" font-family="Times,serif" font-size="14" text-anchor="start">balance: uint96</text><text x="949.105" y="-1121.9" fill="#000" font-family="Times,serif" font-size="14" text-anchor="start">recipient: address</text><text x="949.105" y="-1105.1" fill="#000" font-family="Times,serif" font-size="14" text-anchor="start">voteHistory: HistoricVotes[]</text></g><g id="edge5" class="edge"><title>15-&gt;10</title><path fill="none" stroke="#000" stroke-dasharray="5 2" d="M1073.3395,-1060.2106C1073.3395,-1069.364 1073.3395,-1078.1956 1073.3395,-1086.6311"/><polygon fill="#000" stroke="#000" points="1069.84 -1086.719 1073.34 -1096.719 1076.84 -1086.719 1069.84 -1086.719"/></g><g id="node6" class="node"><title>9</title><polygon fill="#f2f2f2" stroke="#000" points="1223.105 -1130.5 1223.105 -1230.5 1487.574 -1230.5 1487.574 -1130.5 1223.105 -1130.5"/><text x="1355.34" y="-1213.9" fill="#000" font-family="Times,serif" font-size="14" text-anchor="middle">&lt;&lt;Struct&gt;&gt;</text><text x="1355.34" y="-1197.1" fill="#000" font-family="Times,serif" font-size="14" text-anchor="middle">HistoricVotes</text><text x="1355.34" y="-1180.3" fill="#000" font-family="Times,serif" font-size="14" text-anchor="middle">contracts/emissions/EmissionsController.sol</text><polyline fill="none" stroke="#000" points="1223.105 -1172.1 1487.574 -1172.1"/><text x="1231.105" y="-1155.5" fill="#000" font-family="Times,serif" font-size="14" text-anchor="start">votes: uint128</text><text x="1231.105" y="-1138.7" fill="#000" font-family="Times,serif" font-size="14" text-anchor="start">epoch: uint32</text></g><g id="edge6" class="edge"><title>15-&gt;9</title><path fill="none" stroke="#000" stroke-dasharray="5 2" d="M1287.7935,-1060.2106C1300.5603,-1082.9464 1312.2124,-1103.6971 1322.1097,-1121.3227"/><polygon fill="#000" stroke="#000" points="1319.174 -1123.243 1327.122 -1130.249 1325.278 -1119.816 1319.174 -1123.243"/></g><g id="node7" class="node"><title>13</title><polygon fill="#f2f2f2" stroke="#000" points="1505.105 -1105.3 1505.105 -1255.7 1769.574 -1255.7 1769.574 -1105.3 1505.105 -1105.3"/><text x="1637.34" y="-1239.1" fill="#000" font-family="Times,serif" font-size="14" text-anchor="middle">&lt;&lt;Struct&gt;&gt;</text><text x="1637.34" y="-1222.3" fill="#000" font-family="Times,serif" font-size="14" text-anchor="middle">TopLevelConfig</text><text x="1637.34" y="-1205.5" fill="#000" font-family="Times,serif" font-size="14" text-anchor="middle">contracts/emissions/EmissionsController.sol</text><polyline fill="none" stroke="#000" points="1505.105 -1197.3 1769.574 -1197.3"/><text x="1513.105" y="-1180.7" fill="#000" font-family="Times,serif" font-size="14" text-anchor="start">A: int256</text><text x="1513.105" y="-1163.9" fill="#000" font-family="Times,serif" font-size="14" text-anchor="start">B: int256</text><text x="1513.105" y="-1147.1" fill="#000" font-family="Times,serif" font-size="14" text-anchor="start">C: int256</text><text x="1513.105" y="-1130.3" fill="#000" font-family="Times,serif" font-size="14" text-anchor="start">D: int256</text><text x="1513.105" y="-1113.5" fill="#000" font-family="Times,serif" font-size="14" text-anchor="start">EPOCHS: uint128</text></g><g id="edge4" class="edge"><title>15-&gt;13</title><path fill="none" stroke="#000" stroke-dasharray="5 2" d="M1352.0349,-926.4575C1421.7349,-988.5202 1491.7041,-1050.8225 1544.9076,-1098.1963"/><polygon fill="#000" stroke="#000" points="1542.838 -1101.04 1552.634 -1105.076 1547.493 -1095.812 1542.838 -1101.04"/></g><g id="edge8" class="edge"><title>15-&gt;43</title><path fill="none" stroke="#000" stroke-dasharray="5 2" d="M794.6919,-891.2352C704.9441,-952.4315 602.6722,-1014.8582 502.3395,-1060.4 446.1861,-1085.8885 426.0588,-1074.6896 368.3395,-1096.4 351.7487,-1102.6404 334.6123,-1109.9525 317.8854,-1117.6143"/><polygon fill="#000" stroke="#000" points="316.24 -1114.519 308.641 -1121.902 319.185 -1120.87 316.24 -1114.519"/></g><g id="node9" class="node"><title>49</title><polygon fill="#f2f2f2" stroke="#000" points="1787.51 -1130.5 1787.51 -1230.5 2023.169 -1230.5 2023.169 -1130.5 1787.51 -1130.5"/><text x="1905.34" y="-1213.9" fill="#000" font-family="Times,serif" font-size="14" text-anchor="middle">&lt;&lt;Interface&gt;&gt;</text><text x="1905.34" y="-1197.1" fill="#000" font-family="Times,serif" font-size="14" text-anchor="middle">IVotes</text><text x="1905.34" y="-1180.3" fill="#000" font-family="Times,serif" font-size="14" text-anchor="middle">contracts/interfaces/IVotes.sol</text><polyline fill="none" stroke="#000" points="1787.51 -1172.1 2023.169 -1172.1"/><text x="1795.51" y="-1155.5" fill="#000" font-family="Times,serif" font-size="14" text-anchor="start">External:</text><text x="1795.51" y="-1138.7" fill="#000" font-family="Times,serif" font-size="14" text-anchor="start">getVotes(account: address): uint256</text></g><g id="edge7" class="edge"><title>15-&gt;49</title><path fill="none" stroke="#000" stroke-dasharray="5 2" d="M1352.3328,-839.4678C1482.6703,-915.8528 1639.3967,-1009.2705 1778.3395,-1096.4 1792.6667,-1105.3844 1807.7609,-1115.1281 1822.3448,-1124.6911"/><polygon fill="#000" stroke="#000" points="1820.585 -1127.723 1830.863 -1130.294 1824.431 -1121.874 1820.585 -1127.723"/></g><g id="edge10" class="edge"><title>76-&gt;43</title><path fill="none" stroke="#000" stroke-dasharray="5 2" d="M284.6438,-774.535C264.9138,-866.2795 235.4522,-1003.276 216.3141,-1092.268"/><polygon fill="none" stroke="#000" points="205.99 -1090.333 209.948 -1121.87 226.521 -1094.748 205.99 -1090.333"/></g></g></svg>